# xmcd
#
# Track frame offsets:
#	150
#	17450
#	30662
#	44557
#	66177
#	80537
#	101220
#	114125
#	131450
#	145440
#	158597
#	169170
#	184785
#	204027
#
# Disc length: 2905 seconds
#
# Revision: 7
# Processed by: cddbd v1.5.1PL0 Copyright (c) Steve Scherf et al.
# Submitted via: MusicWizard 7.0.2
#
DISCID=b30b570e
DTITLE=Dwight Yoakam - Tomorrow's Sounds Today
DYEAR=2000
DGENRE=Country
TTITLE0=Love Caught Up To Me
TTITLE1=What Do You Know About Love
TTITLE2=Time Spent Missing You
TTITLE3=Free To Go
TTITLE4=A Promise You Can't Keep
TTITLE5=A Place To Cry
TTITLE6=The Sad Side Of Town
TTITLE7=Dreams Of Clay
TTITLE8=For Love's Sake
TTITLE9=The Heartaches Are Free
TTITLE10=A World Of Blue
TTITLE11=I Want You To Want Me
TTITLE12=Alright, I'm Wrong (Duet With Buck Owens)
TTITLE13=I Was There (Duet With Buck Owens)
EXTD=(c)2000 Reprise Records - Warner Bros - WEA\nProduced by Pete Anderson\n\nupc 093624782728
EXTT0=
EXTT1=
EXTT2=
EXTT3=
EXTT4=
EXTT5=
EXTT6=
EXTT7=
EXTT8=
EXTT9=
EXTT10=
EXTT11=
EXTT12=
EXTT13=
PLAYORDER=
